<svg width="128" height="31" viewBox="0 0 128 31" fill="none" xmlns="http://www.w3.org/2000/svg">
<path d="M127.922 23.3418H0V30.7604H127.922V23.3418Z" fill="white"/>
<path d="M119.32 13.0095V3.74316H121.943V6.45593H124.171C126.497 6.45593 127.998 7.73619 127.998 9.72233C128.013 10.1612 127.934 10.5981 127.769 11.0046C127.603 11.4112 127.353 11.7784 127.036 12.0822C126.281 12.7362 125.3 13.069 124.303 13.0095H119.32ZM121.943 10.9887H123.763C124.787 10.9887 125.383 10.5251 125.383 9.70157C125.383 8.87805 124.787 8.40746 123.763 8.40746H121.943V10.9887Z" fill="white"/>
<path d="M102.373 13.0095L106.366 8.06837L102.781 3.74316H105.709L108.532 7.20333V3.74316H111.113V7.20333L113.923 3.74316H116.878L113.321 8.06837L117.335 13.0095H114.207L111.141 9.05105V13.0095H108.56V9.05105L105.473 13.0095H102.373Z" fill="white"/>
<path d="M93.1764 11.9164C92.6861 11.4677 92.2991 10.9179 92.0422 10.3049C91.7853 9.69194 91.6646 9.03047 91.6885 8.36627C91.6704 7.72915 91.7798 7.09484 92.0104 6.50062C92.241 5.90641 92.588 5.36428 93.0311 4.90611C93.4784 4.44548 94.0176 4.08419 94.6138 3.84573C95.21 3.60727 95.8496 3.49698 96.4912 3.52204C97.1007 3.49907 97.7074 3.61555 98.2651 3.8626C98.8228 4.10965 99.3167 4.48076 99.7092 4.94763C100.514 5.91819 100.942 7.14697 100.913 8.40779V9.09982H94.2906C94.5674 10.3593 95.7577 11.0306 97.3978 11.0306C98.4422 11.0255 99.4665 10.7437 100.367 10.214V12.2901C99.3258 12.9843 98.0858 13.3174 96.8372 13.2382C95.4928 13.2819 94.1827 12.8089 93.1764 11.9164ZM98.3597 7.41819C98.3553 7.16769 98.301 6.92057 98.2002 6.69123C98.0993 6.46188 97.9538 6.25488 97.7722 6.08229C97.5906 5.90969 97.3765 5.77495 97.1423 5.68589C96.9081 5.59683 96.6586 5.55524 96.4082 5.56354C95.8833 5.53662 95.3687 5.71523 94.9733 6.06148C94.578 6.40773 94.3331 6.89438 94.2906 7.41819H98.3597Z" fill="white"/>
<path d="M89.0504 11.2657L85.6525 3.65332H84.0124L80.4969 11.2657H78.9121V13.4525H90.5867V11.2657H89.0504ZM82.9882 11.2657L84.8013 7.3557L86.5522 11.2657H82.9882Z" fill="white"/>
<path d="M72.8227 3.62549C71.8646 3.62549 70.9281 3.9096 70.1314 4.44189C69.3348 4.97418 68.7139 5.73075 68.3473 6.61591C67.9806 7.50108 67.8847 8.4751 68.0716 9.41478C68.2585 10.3545 68.7199 11.2176 69.3974 11.8951C70.0748 12.5726 70.938 13.034 71.8777 13.2209C72.8174 13.4078 73.7914 13.3118 74.6766 12.9452C75.5617 12.5786 76.3183 11.9577 76.8506 11.161C77.3829 10.3644 77.667 9.42782 77.667 8.46972C77.6579 7.18775 77.1446 5.96085 76.2381 5.05434C75.3316 4.14783 74.1047 3.63455 72.8227 3.62549ZM72.8227 11.2379C72.2815 11.2392 71.7521 11.0799 71.3015 10.7801C70.8509 10.4802 70.4995 10.0534 70.2917 9.5536C70.084 9.05383 70.0292 8.50363 70.1345 7.97274C70.2397 7.44184 70.5002 6.95414 70.8829 6.57144C71.2656 6.18873 71.7534 5.92824 72.2842 5.82299C72.8151 5.71774 73.3653 5.77245 73.8651 5.98021C74.3649 6.18796 74.7917 6.53939 75.0916 6.98998C75.3914 7.44056 75.5507 7.97002 75.5494 8.51124C75.5457 9.23262 75.257 9.92331 74.7463 10.4328C74.2356 10.9422 73.5441 11.2291 72.8227 11.2309V11.2379Z" fill="white"/>
<path d="M50.9346 3.62549C49.978 3.63232 49.0449 3.92223 48.2528 4.45866C47.4607 4.99508 46.8452 5.75401 46.4839 6.63976C46.1225 7.52551 46.0315 8.49841 46.2223 9.43581C46.4131 10.3732 46.8772 11.2331 47.5561 11.9072C48.2349 12.5812 49.0981 13.0391 50.0368 13.2232C50.9756 13.4074 51.9478 13.3094 52.8309 12.9418C53.7141 12.5742 54.4686 11.9533 54.9994 11.1574C55.5302 10.3615 55.8134 9.42634 55.8135 8.46972C55.8025 7.18235 55.2839 5.95132 54.3703 5.04422C53.4567 4.13712 52.222 3.62727 50.9346 3.62549ZM50.9346 11.2379C50.3952 11.231 49.8699 11.0647 49.4248 10.7599C48.9797 10.4552 48.6347 10.0255 48.4333 9.52504C48.232 9.02459 48.1831 8.47573 48.293 7.94759C48.403 7.41946 48.6667 6.93564 49.051 6.55709C49.4353 6.17853 49.9231 5.92216 50.4528 5.82024C50.9825 5.71832 51.5306 5.77543 52.0279 5.98436C52.5253 6.19329 52.9497 6.54471 53.2477 6.99436C53.5458 7.44401 53.7041 7.97179 53.7028 8.51124C53.7019 8.87224 53.6293 9.22948 53.4893 9.56222C53.3493 9.89496 53.1446 10.1966 52.8871 10.4496C52.6296 10.7026 52.3244 10.9019 51.9892 11.0361C51.654 11.1702 51.2956 11.2364 50.9346 11.2309V11.2379Z" fill="white"/>
<path d="M33.3359 13.0095V3.74316H35.9172L38.6162 7.20333L41.3289 3.74316H43.9102V13.0095H41.4396V7.26561L39.1352 10.1514H38.0971L35.8134 7.26561V12.9887L33.3359 13.0095Z" fill="white"/>
<path d="M23.9801 11.9164C23.4893 11.4637 23.1022 10.9102 22.8453 10.2938C22.5885 9.67746 22.4681 9.01283 22.4922 8.34553C22.4644 7.68696 22.5835 7.03044 22.8409 6.42359C23.0982 5.81674 23.4874 5.27475 23.9801 4.83693C24.9621 3.95275 26.2437 3.47525 27.5648 3.5013C28.5228 3.48139 29.4718 3.69016 30.333 4.11029V6.33864C29.5955 5.98609 28.7905 5.79722 27.9731 5.78501C27.2192 5.74978 26.4791 5.99647 25.897 6.47705C25.637 6.71316 25.4292 7.00106 25.2869 7.32224C25.1447 7.64343 25.0713 7.9908 25.0713 8.34207C25.0713 8.69333 25.1447 9.04071 25.2869 9.3619C25.4292 9.68309 25.637 9.97099 25.897 10.2071C26.4784 10.6889 27.219 10.9357 27.9731 10.8991C28.8518 10.918 29.7194 10.7005 30.4852 10.2694V12.4977C29.5802 12.9696 28.5715 13.2075 27.551 13.1898C26.2413 13.2399 24.9626 12.7839 23.9801 11.9164Z" fill="white"/>
<path d="M15.7432 3.62549C14.7866 3.63232 13.8535 3.92223 13.0614 4.45866C12.2693 4.99508 11.6538 5.75401 11.2925 6.63976C10.9311 7.52551 10.8401 8.49841 11.0309 9.43581C11.2217 10.3732 11.6858 11.2331 12.3646 11.9072C13.0435 12.5812 13.9067 13.0391 14.8454 13.2232C15.7841 13.4074 16.7564 13.3094 17.6395 12.9418C18.5227 12.5742 19.2772 11.9533 19.808 11.1574C20.3388 10.3615 20.622 9.42634 20.6221 8.46972C20.6129 7.18178 20.0949 5.9497 19.1809 5.04221C18.2669 4.13472 17.0312 3.62546 15.7432 3.62549ZM15.7432 11.2379C15.202 11.2392 14.6725 11.0799 14.222 10.7801C13.7714 10.4802 13.4199 10.0534 13.2122 9.5536C13.0044 9.05383 12.9497 8.50363 13.055 7.97274C13.1602 7.44184 13.4207 6.95414 13.8034 6.57144C14.1861 6.18873 14.6738 5.92824 15.2047 5.82299C15.7356 5.71774 16.2858 5.77245 16.7856 5.98021C17.2854 6.18796 17.7122 6.53939 18.012 6.98998C18.3119 7.44056 18.4712 7.97002 18.4698 8.51124C18.468 9.23319 18.1799 9.92493 17.6688 10.4348C17.1576 10.9446 16.4652 11.2309 15.7432 11.2309V11.2379Z" fill="white"/>
<path d="M0.0625 13.0098V0.00647979H5.75101C6.95164 -0.0559276 8.13201 0.334233 9.05893 1.09989C9.44584 1.46357 9.75418 1.90262 9.96496 2.39C10.1757 2.87738 10.2845 3.40276 10.2845 3.93376C10.2845 4.46477 10.1757 4.99015 9.96496 5.47753C9.75418 5.96491 9.44584 6.40396 9.05893 6.76764C8.1347 7.53881 6.95301 7.93188 5.75101 7.86797H2.74067V13.0098H0.0625ZM2.74067 5.57734H5.56416C6.84442 5.57734 7.64026 5.00296 7.64026 3.96491C7.64026 2.92686 6.87902 2.34555 5.56416 2.34555H2.74067V5.57734Z" fill="white"/>
<path d="M58.9192 13.4527L61.7496 7.35585L64.4832 13.4527H66.9883L62.6008 3.68115H60.9538L56.4141 13.4527H58.9192Z" fill="white"/>
</svg>
